<?xml version="1.0" encoding="utf-8"?>
<!-- Generator: Adobe Illustrator 25.4.8, SVG Export Plug-In . SVG Version: 6.00 Build 0)  -->
<svg version="1.1"
	 id="svg2" inkscape:version="0.47 r22583" xmlns:cc="http://creativecommons.org/ns#" xmlns:dc="http://purl.org/dc/elements/1.1/" xmlns:inkscape="http://www.inkscape.org/namespaces/inkscape" xmlns:rdf="http://www.w3.org/1999/02/22-rdf-syntax-ns#" xmlns:sodipodi="http://sodipodi.sourceforge.net/DTD/sodipodi-0.dtd" xmlns:svg="http://www.w3.org/2000/svg"
	 xmlns="http://www.w3.org/2000/svg" xmlns:xlink="http://www.w3.org/1999/xlink" x="0px" y="0px" viewBox="0 0 720 940"
	 style="enable-background:new 0 0 720 940;" xml:space="preserve">
<style type="text/css">
	.st0{fill:#E8D500;}
	.st1{fill:#119810;}
	.st2{fill:#CC0300;}
	.st3{fill:#091704;}
</style>
<g id="layer1" transform="translate(-8.9285686,-44.86217)" inkscape:groupmode="layer" inkscape:label="Layer 1">
	<g id="g2830" transform="matrix(0.95270993,0,0,0.95270993,17.565087,26.931489)">
		<rect x="23.4" y="50.5" class="st0" width="687.1" height="908.3"/>
		<path id="path2836" class="st1" d="M29.9,979.8c-7.6-2.9-16-11.4-18.8-19.1l-2.2-5.8V509.5V64.1l2.2-5.8
			c2.9-7.7,10-15.2,18.1-18.9l6.2-2.9l331.5-0.3c235.5-0.2,333.4,0,337.9,0.8c3.5,0.6,8.5,2.1,11,3.4c5.7,2.9,12.5,10.1,15.4,16.4
			l2.2,4.7l0.3,445.9c0.3,489.1,0.8,450.7-5.7,460c-3.9,5.7-9.8,10.3-16.1,12.7c-4.9,1.8-13.7,1.9-340.7,1.8l-335.7-0.1L29.9,979.8
			L29.9,979.8z M608.7,932.3l94.2-18.8V540.8c0-205-0.3-372.8-0.8-372.8c-0.4,0-42.8-8.5-94.2-18.8l-93.5-18.7l-0.3-31.7L513.9,67
			H371.4H229l-0.3,31.7l-0.3,31.7l-93.5,18.7c-51.4,10.3-93.8,18.8-94.2,18.8c-0.4,0-0.8,167.8-0.8,372.9v372.9l94.5,18.9l94.5,18.9
			l142.7-0.2l142.7-0.2L608.7,932.3L608.7,932.3z M197.7,942.7l-29.8-6v-30.2v-30.2l30.2,6.1l30.2,6.1l0.3,29.4
			c0.1,16.2-0.1,29.7-0.5,30.1C227.8,948.4,214,946,197.7,942.7z M185.7,929.9c-1.4-0.8-1.8-2.5-1.8-9.5c0-4.6-0.1-8.4-0.2-8.4
			c-1.6,0.1-7.8,2.9-6.5,2.9c1.5,0,1.8,1.1,1.8,7.5c0,6.2-0.3,7.5-1.8,7.9c-1,0.3,0.9,0.5,4.2,0.5C186,930.9,187,930.7,185.7,929.9
			L185.7,929.9z M202.9,927.5c0-1.9-0.4-3.5-1-3.5s-1,0.7-1,1.5c0,1.1-1.1,1.5-3.6,1.5h-3.6l4.3-3.3c2.4-1.8,4.5-4.3,4.7-5.6
			c0.7-5.1-5.8-7.9-10.6-4.6c-2.6,1.8-2.9,4.7-0.7,6.5c2.4,2,4.4-0.4,2.7-3.1c-1-1.7-1-2.1,0.3-2.6c0.9-0.3,2.1-0.1,2.6,0.4
			c1.7,1.7,0.1,5.7-4.2,10.7c-2.2,2.5-4,4.8-4,5.1s3.1,0.4,7,0.4h7L202.9,927.5L202.9,927.5z M218.9,911c1.3-1.3,2-3.3,2-6
			c0-6.2-2.5-8-10.8-8c-5.1,0-6.3,0.3-5,1c1.4,0.8,1.8,2.4,1.8,6.9s-0.4,6.1-1.8,6.9c-1.3,0.8-0.1,1,5,1
			C215.6,913,217.3,912.6,218.9,911z M210.9,905c0-6.3,0.2-7,2-7c2.5,0,4,2.8,4,7.4c0,3.6-2.1,6.6-4.6,6.6
			C211.3,912,210.9,910.4,210.9,905z M230.9,918.5V888h46h46v30.5V949h-46h-46V918.5z M325.2,918.8l0.3-30.2h46h46l0.3,30.2L418,949
			h-46.5H325L325.2,918.8z M419.9,918.5V888h46h46v30.5V949h-46h-46V918.5z M514.3,947.6c-0.2-0.6-0.3-14.2-0.2-30.1l0.3-29
			l30.2-6.1l30.2-6.1v30.2v30.2l-30.1,6C524.1,946.9,514.6,948.4,514.3,947.6z M531.7,929.9c-1.4-0.8-1.8-2.5-1.8-9.5
			c0-4.6-0.1-8.4-0.2-8.4c-1.6,0.1-7.8,2.9-6.5,2.9c1.5,0,1.8,1.1,1.8,7.5c0,6.2-0.3,7.5-1.8,7.9c-1,0.3,1,0.5,4.2,0.5
			C532,930.9,533,930.7,531.7,929.9L531.7,929.9z M549.9,927.5c0-1.9-0.5-3.5-1-3.5s-1,0.7-1,1.5c0,1.1-1.1,1.5-3.6,1.5h-3.6
			l4.3-3.3c2.4-1.8,4.5-4.3,4.7-5.6c0.7-5.1-5.8-7.9-10.6-4.6c-2.6,1.8-2.9,4.7-0.7,6.5c2.4,2,4.4-0.4,2.7-3.1c-1-1.7-1-2.1,0.3-2.6
			c0.9-0.3,2.1-0.1,2.6,0.4c1.7,1.7,0.1,5.7-4.2,10.7c-2.2,2.5-4,4.8-4,5.1s3.2,0.4,7,0.4h7L549.9,927.5L549.9,927.5z M565.9,904
			c1.3-1.3,2-3.3,2-6c0-6.2-2.5-8-10.8-8c-5.1,0-6.3,0.3-5,1c1.4,0.8,1.8,2.4,1.8,6.9s-0.4,6.1-1.8,6.9c-1.3,0.8-0.1,1,5,1
			C562.6,906,564.3,905.6,565.9,904z M557.9,898c0-6.3,0.2-7,2-7c2.5,0,4,2.8,4,7.4c0,3.6-2.1,6.6-4.6,6.6
			C558.3,905,557.9,903.4,557.9,898z M133.9,930c-15.7-3.2-28.6-5.9-28.7-5.9c-0.7-0.1-0.1-60,0.6-60c0.8,0,53.9,10.5,57.9,11.5
			l2.2,0.5v30c0,27.9-0.1,30-1.8,29.9C163.2,935.9,149.6,933.2,133.9,930L133.9,930z M122.7,917.9c-1.4-0.8-1.8-2.5-1.8-9.5
			c0-4.6-0.1-8.4-0.2-8.4c-1.6,0.1-7.8,2.9-6.5,2.9c1.5,0,1.8,1.1,1.8,7.5c0,6.2-0.3,7.5-1.8,7.9c-1,0.3,0.9,0.5,4.2,0.5
			C123,918.9,124,918.7,122.7,917.9L122.7,917.9z M139.9,915.5c0-1.9-0.4-3.5-1-3.5s-1,0.7-1,1.5c0,1.1-1.1,1.5-3.6,1.5h-3.6
			l4.3-3.3c2.4-1.8,4.5-4.3,4.7-5.6c0.7-5.1-5.8-7.9-10.6-4.6c-2.6,1.8-2.9,4.7-0.7,6.5c2.4,2,4.4-0.4,2.7-3.1c-1-1.7-1-2.1,0.3-2.6
			c0.9-0.3,2.1-0.1,2.6,0.4c1.7,1.7,0.1,5.7-4.2,10.7c-2.2,2.5-4,4.8-4,5.1s3.1,0.4,7,0.4h7v-3.4H139.9z M147.6,898.7
			c-1.4-1-1.7-2.4-1.4-6.2l0.3-5l2.3,6.2c1.3,3.4,2.7,6.2,3.1,6.2s1.7-3,2.9-6.8l2.1-6.8l0.1,6.2c0,4.1-0.4,6.3-1.2,6.7
			c-0.7,0.3,1,0.5,3.8,0.6c3.9,0,4.6-0.2,3.2-1c-1.4-0.8-1.7-2.4-1.7-6.9s0.4-6.1,1.8-6.9c1.4-0.8,0.9-1-2.5-1c-4.1,0-4.3,0.1-5.4,4
			c-0.7,2.2-1.5,4-1.9,4s-1.3-1.8-2-4c-1.3-3.8-1.5-4-5.4-4c-3.3,0-3.7,0.2-2.3,1c1.3,0.8,1.8,2.3,1.8,6.6c0,4.2-0.5,5.9-1.8,6.9
			c-1.6,1.2-1.3,1.3,2.2,1.4C148.8,900,149.1,899.8,147.6,898.7L147.6,898.7z M576.9,906v-30l2.2-0.5c4.1-1,57.1-11.5,57.9-11.5
			c0.4,0,0.8,13.5,0.8,30v30l-2.2,0.5c-4.1,1-57.1,11.5-57.9,11.5C577.3,936,576.9,922.5,576.9,906z M594.7,917.9
			c-1.4-0.8-1.8-2.5-1.8-9.5c0-4.6-0.1-8.4-0.2-8.4c-1.6,0.1-7.8,2.9-6.5,2.9c1.5,0,1.8,1.1,1.8,7.5c0,6.2-0.3,7.5-1.8,7.9
			c-1,0.3,1,0.5,4.2,0.5C595,918.9,596,918.7,594.7,917.9L594.7,917.9z M612.9,915.5c0-1.9-0.5-3.5-1-3.5s-1,0.7-1,1.5
			c0,1.1-1.1,1.5-3.6,1.5h-3.6l4.3-3.3c2.4-1.8,4.5-4.3,4.7-5.6c0.7-5.1-5.8-7.9-10.6-4.6c-2.6,1.8-2.9,4.7-0.7,6.5
			c2.4,2,4.4-0.4,2.7-3.1c-1-1.7-1-2.1,0.3-2.6c0.9-0.3,2.1-0.1,2.6,0.4c1.7,1.7,0.1,5.7-4.2,10.7c-2.2,2.5-4,4.8-4,5.1
			s3.2,0.4,7,0.4h7L612.9,915.5L612.9,915.5z M619.6,892.7c-1.4-1-1.7-2.4-1.4-6.2l0.3-5l2.3,6.2c1.3,3.4,2.7,6.2,3.1,6.2
			s1.7-3,2.9-6.8l2.1-6.8l0.1,6.2c0,4.1-0.4,6.3-1.2,6.7c-0.7,0.3,1,0.5,3.8,0.6c3.9,0,4.6-0.2,3.2-1c-1.4-0.8-1.8-2.4-1.8-6.9
			s0.4-6.1,1.8-6.9c1.4-0.8,0.9-1-2.5-1c-4.1,0-4.3,0.1-5.4,4c-0.7,2.2-1.5,4-1.9,4s-1.3-1.8-2-4c-1.3-3.8-1.5-4-5.4-4
			c-3.3,0-3.7,0.2-2.3,1c1.3,0.8,1.8,2.3,1.8,6.6c0,4.2-0.5,5.9-1.8,6.9c-1.6,1.2-1.3,1.3,2.2,1.4
			C620.8,894,621.1,893.8,619.6,892.7L619.6,892.7z M639.9,893.5v-30.2l28.8-5.7c15.8-3.1,29.5-5.9,30.5-6.2
			c1.6-0.5,1.8,1.4,1.8,29.8v30.3l-30.5,6.1l-30.5,6.1L639.9,893.5L639.9,893.5z M657.7,904.9c-1.4-0.8-1.8-2.5-1.8-9.5
			c0-4.6-0.1-8.4-0.2-8.4c-1.6,0.1-7.8,2.9-6.5,2.9c1.5,0,1.8,1.1,1.8,7.5c0,6.2-0.3,7.5-1.8,7.9c-1,0.3,1,0.5,4.2,0.5
			C658,905.9,659,905.7,657.7,904.9L657.7,904.9z M675.9,902.5c0-1.9-0.5-3.5-1-3.5s-1,0.7-1,1.5c0,1.1-1.1,1.5-3.6,1.5h-3.6
			l4.3-3.3c2.4-1.8,4.5-4.3,4.7-5.6c0.7-5.1-5.8-7.9-10.6-4.6c-2.6,1.8-2.9,4.7-0.7,6.5c2.4,2,4.4-0.4,2.7-3.1c-1-1.7-1-2.1,0.3-2.6
			c0.9-0.3,2.1-0.1,2.6,0.4c1.7,1.7,0.1,5.7-4.2,10.7c-2.2,2.5-4,4.8-4,5.1s3.2,0.4,7,0.4h7L675.9,902.5L675.9,902.5z M685.2,880.3
			c-0.7-0.3-1.2-1.8-1.2-3.4c0-2.5,0.4-2.9,2.6-2.9c3.8,0,6.4-1.8,6.4-4.3c0-3.8-1.9-4.7-9.5-4.5c-3.9,0.1-6.3,0.3-5.3,0.6
			c1.4,0.4,1.8,1.6,1.8,6.8c0,5-0.4,6.6-1.8,7.4c-1.4,0.8-0.6,1,3.2,1C684.2,880.9,685.9,880.6,685.2,880.3L685.2,880.3z
			 M683.9,869.4c0-3.1,0.3-3.5,2.2-3.2c4.2,0.6,3.3,6.8-1,6.8C684.4,873,683.9,871.6,683.9,869.4z M69.7,917.2L42,911.6v-30.3
			c0-28.4,0.1-30.3,1.8-29.8c1,0.3,14.7,3.1,30.5,6.2l28.8,5.7v29.9V923l-2.8-0.1C98.7,922.8,84.9,920.3,69.7,917.2L69.7,917.2z
			 M59.7,904.9c-1.4-0.8-1.8-2.5-1.8-9.5c0-4.6-0.1-8.4-0.2-8.4c-1.6,0.1-7.8,2.9-6.5,2.9c1.5,0,1.8,1.1,1.8,7.5
			c0,6.2-0.3,7.5-1.8,7.9c-1,0.3,1,0.5,4.2,0.5C60,905.9,61,905.7,59.7,904.9L59.7,904.9z M76.9,902.5c0-1.9-0.5-3.5-1-3.5
			c-0.6,0-1,0.7-1,1.5c0,1.1-1.1,1.5-3.6,1.5h-3.6l4.3-3.3c2.4-1.8,4.5-4.3,4.7-5.6c0.7-5.1-5.8-7.9-10.6-4.6
			c-2.6,1.8-2.9,4.7-0.7,6.5c2.4,2,4.4-0.4,2.7-3.1c-1-1.7-1-2.1,0.3-2.6c0.9-0.3,2.1-0.1,2.6,0.4c1.7,1.7,0.1,5.7-4.2,10.7
			c-2.2,2.5-4,4.8-4,5.1s3.1,0.4,7,0.4h7L76.9,902.5L76.9,902.5z M87.2,886.3c-0.7-0.3-1.2-1.8-1.2-3.4c0-2.5,0.4-2.9,2.6-2.9
			c3.8,0,6.4-1.8,6.4-4.3c0-3.8-1.9-4.7-9.4-4.5c-3.9,0.1-6.3,0.3-5.3,0.6c1.4,0.4,1.8,1.6,1.8,6.8c0,5-0.4,6.6-1.8,7.4
			c-1.4,0.8-0.6,1,3.2,1C86.2,886.9,87.9,886.6,87.2,886.3L87.2,886.3z M85.9,875.4c0-3.1,0.3-3.5,2.2-3.2c4.2,0.6,3.3,6.8-1,6.8
			C86.4,879,85.9,877.6,85.9,875.4z M134.7,867.2L42,848.6V742.8V637h93.5H229v124.5c0,68.5-0.3,124.5-0.7,124.4
			S185.7,877.4,134.7,867.2z M230.9,855.5V825h46h46v30.5V886h-46h-46V855.5L230.9,855.5z M325.2,855.8l0.3-30.2h46h46l0.3,30.2
			L418,886h-46.5H325L325.2,855.8z M419.9,855.5V825h46h46v30.5V886h-46h-46V855.5z M514.5,885.2c-0.3-0.3-0.5-56.2-0.5-124.3V637
			h93.5H701v105.8v105.8l-93,18.6C556.8,877.3,514.7,885.5,514.5,885.2z M230.9,792.5V762h46h46v30.5V823h-46h-46V792.5z
			 M325.2,792.8l0.3-30.2h46h46l0.3,30.2L418,823h-46.5H325L325.2,792.8z M419.9,792.5V762h46h46v30.5V823h-46h-46V792.5z
			 M230.9,729.5V699h46h46v30.5V760h-46h-46V729.5z M325.2,729.8l0.3-30.2h46h46l0.3,30.2L418,760h-46.5H325L325.2,729.8z
			 M419.9,729.5V699h46h46v30.5V760h-46h-46V729.5z M230.9,667v-30h46h46v30v30h-46h-46V667z M324.9,667v-30h46.5h46.5v30v30h-46.5
			h-46.5V667z M419.9,667v-30h46h46v30v30h-46h-46V667z M41.9,509.5V385h93.5h93.5v124.5V634h-93.5H41.9V509.5z M126.9,558
			c0-0.5-0.7-1-1.6-1c-2.9,0-1.1-3.3,1.8-3.4c1.5-0.1,3.5-0.9,4.4-1.8c1.5-1.5,1.8-1.5,3.6,0.8c2.4,3,7,3.2,9.8,0.4
			c1.7-1.7,2-3.3,2-12c0-9.2-1-12.8-2.3-8c-0.5,1.8-1.4,2-10.7,2s-10.2-0.2-10.7-2c-1.1-4.3-2.3-1.7-2.3,5c0,4,0.4,7,1,7s1-0.9,1-2
			c0-1.7,0.7-2,5-2c4.1,0,5,0.3,5,1.8c0,2.7-2,4.2-5.7,4.2c-3.6,0-7.3,2.9-7.3,5.8c0,2.7,2.9,6.2,5.1,6.2
			C126.1,559,126.9,558.6,126.9,558z M136,547.1c-0.6-1.1-1-2.9-1-4.1c0-1.9,0.5-2.1,4.8-1.8c4.1,0.3,4.8,0.6,5.1,2.6
			c0.2,1.3-0.2,3-0.9,3.8C142.1,549.7,137.2,549.4,136,547.1L136,547.1z M123.2,527c0.5-1.8,1.4-2,10.7-2c9.3,0,10.2,0.2,10.7,2
			c1.1,4.3,2.3,1.7,2.3-5s-1.2-9.3-2.3-5c-0.5,1.9-1.2,2-10.9,1.8l-10.3-0.3l-0.3-2.7c-0.4-3.3,0.2-3.7,13.3-9.2
			c5.7-2.4,10.1-4.8,10.3-5.7c0.2-1.1-3-2.9-10.8-6.3c-6.1-2.7-11.6-5.7-12.3-6.7c-2-3.1-2.7-2.1-2.7,3.6c0,3,0.4,5.5,1,5.5
			s1-0.6,1-1.4c0-2,1.6-2.8,4-2.1c1.6,0.5,2,1.5,2,5.1c0,3.9-0.3,4.6-2.6,5.4c-3.3,1.3-3.4,1.2-3.4-0.5c0-0.8-0.4-1.5-1-1.5
			s-1,5.2-1,13.5C120.9,527.7,121.8,532.3,123.2,527z M130.9,498.5c0-3.5,0-3.5,2.8-2.1c1.5,0.8,3.4,1.6,4.2,1.9
			c1,0.3,0.1,1.1-2.4,2.1c-2.1,0.9-4,1.6-4.2,1.6S130.9,500.4,130.9,498.5L130.9,498.5z M144.1,484.1c2.2-1.8,2.4-2.8,2.7-12.5
			c0.2-6.4,0-10.6-0.6-10.6c-0.5,0-1.2,0.9-1.5,2c-0.5,1.8-1.4,2-10.7,2s-10.2-0.2-10.7-2c-1.1-4.3-2.3-1.7-2.3,5c0,4,0.4,7,1,7
			s1-0.9,1-2c0-1.7,0.7-2,4.4-2h4.4l0.5,5.5c0.5,6.4,2.8,9.5,6.8,9.5C140.5,486,142.8,485.1,144.1,484.1L144.1,484.1z M135.5,478.4
			c-0.9-0.9-1.6-2.9-1.6-4.6c0-3,0-3,5.2-2.7c4.8,0.3,5.3,0.5,5.6,2.9C145.3,479.1,139.1,482,135.5,478.4L135.5,478.4z M230.9,604
			v-30h46h46v30v30h-46h-46V604L230.9,604z M324.9,604v-30h46.5h46.5v30v30h-46.5h-46.5V604z M419.9,604v-30h46h46v30v30h-46h-46
			V604z M514,509.5V385h93.5H701v124.5V634h-93.5H514V509.5z M598.2,581c0.5-1.8,1.4-2,10.7-2s10.2,0.2,10.7,2
			c1.1,4.3,2.3,1.7,2.3-5s-1.2-9.3-2.3-5c-0.5,1.8-1.4,2-10.7,2s-10.2-0.2-10.7-2c-1.1-4.3-2.3-1.7-2.3,5S597.1,585.3,598.2,581z
			 M598.2,566c0.5-1.8,1.4-2,10.7-2s10.2,0.2,10.7,2c1,3.9,2.3,1.9,2.3-3.5c0-3-0.5-5.5-1-5.5s-1,0.7-1,1.5c0,2.5-3.5,3.5-11.7,3.5
			l-7.8-0.1l10.7-4.2c5.9-2.3,10.7-4.6,10.8-5.2s-4.7-2.8-10.5-4.9c-5.8-2.1-10.5-4-10.5-4.2s4.1-0.4,9.1-0.4c8.3,0,9.1,0.2,9.6,2
			c1.1,4.1,2.3,1.8,2.3-4.5c0-3.7-0.4-6.5-1-6.5c-0.5,0-1,0.7-1,1.5c0,1.2-1.9,1.5-11,1.5s-11-0.3-11-1.5c0-0.8-0.5-1.5-1-1.5
			c-0.6,0-1,2.6-1,5.8v5.8l7.6,2.5l7.6,2.5l-7.4,2.6l-7.4,2.6l-0.3,6.1C595.8,567.7,597.1,570.2,598.2,566L598.2,566z M598.2,530
			c0.5-1.8,1.4-2,10.7-2s10.2,0.2,10.7,2c1.1,4.3,2.3,1.7,2.3-5c0-4-0.4-7-1-7c-0.5,0-1,0.9-1,2c0,1.7-0.7,2-4.4,2h-4.4l-0.5-5.5
			c-0.5-6.4-2.8-9.5-6.8-9.5c-1.5,0-3.8,0.9-5.1,1.9c-2.2,1.8-2.4,2.8-2.7,12.5c-0.2,6.4,0,10.6,0.6,10.6
			C597.3,532,597.9,531.1,598.2,530L598.2,530z M598.6,521.3c-1.2-1.2-0.7-5.2,0.9-6.8c3.6-3.6,9.4-0.8,9.4,4.5
			c0,2.8-0.2,2.9-4.8,2.9C601.4,522,599,521.7,598.6,521.3L598.6,521.3z M621.9,501.5c0-3-0.5-5.5-1-5.5s-1,0.6-1,1.4
			c0,2-1.6,2.8-4,2.1c-1.6-0.5-2-1.5-2-5.1c0-3.9,0.3-4.6,2.6-5.4c3.3-1.3,3.4-1.2,3.4,0.5c0,0.8,0.5,1.5,1,1.5c0.6,0,1-5.2,1-13.5
			c0-12.2-0.9-16.8-2.3-11.5c-0.5,1.8-1.4,2-10.7,2s-10.2-0.2-10.7-2c-1.1-4.3-2.3-1.7-2.3,5s1.2,9.3,2.3,5c0.5-1.9,1.2-2,10.9-1.8
			l10.3,0.3l0.3,2.7c0.4,3.3-0.2,3.7-13.3,9.2c-5.7,2.4-10.1,4.8-10.3,5.7c-0.2,1.1,3,2.9,10.8,6.3c6.1,2.7,11.6,5.7,12.3,6.7
			C621.2,508.3,621.9,507.3,621.9,501.5z M607.5,495.9l-3.9-1.7l3.8-1.6c2.1-0.9,4-1.4,4.3-1.2c0.2,0.2,0.3,1.7,0.1,3.3l-0.3,2.9
			L607.5,495.9L607.5,495.9z M598.2,461c0.5-1.8,1.4-2,10.7-2s10.2,0.2,10.7,2c1.1,4.3,2.3,1.7,2.3-5c0-4-0.4-7-1-7
			c-0.5,0-1,0.9-1,2c0,1.7-0.7,2-5,2c-4.1,0-5-0.3-5-1.8c0-2.7,2-4.2,5.7-4.2c3.6,0,7.3-2.9,7.3-5.8c0-2.7-2.9-6.2-5.1-6.2
			c-1.1,0-1.9,0.5-1.9,1s0.7,1,1.6,1c2.9,0,1.1,3.3-1.8,3.4c-1.5,0.1-3.5,0.9-4.4,1.8c-1.5,1.5-1.8,1.5-3.6-0.8
			c-2.4-3-7-3.2-9.8-0.4c-1.7,1.7-2,3.3-2,12C595.9,462.2,597,465.8,598.2,461L598.2,461z M598.6,452.3c-1.1-1.1-0.8-4.8,0.5-6.1
			c0.7-0.7,2.4-1.2,4-1.2c2.9,0,4.8,2.3,4.8,5.9c0,1.8-0.6,2.1-4.3,2.1C601.2,453,599,452.7,598.6,452.3L598.6,452.3z M230.9,541
			v-30h46h46v30v30h-46h-46V541z M324.9,541v-30h46.5h46.5v30v30h-46.5h-46.5V541z M419.9,541v-30h46h46v30v30h-46h-46V541z
			 M230.9,478v-30h46h46v30v30h-46h-46V478z M324.9,478v-30h46.5h46.5v30v30h-46.5h-46.5V478z M419.9,478v-30h46h46v30v30h-46h-46
			V478z M230.9,415v-30h46h46v30v30h-46h-46V415z M324.9,415v-30h46.5h46.5v30v30h-46.5h-46.5V415z M419.9,415v-30h46h46v30v30h-46
			h-46V415z M41.9,276.2V170.3l91.2-18.2c50.2-10,92.3-18.5,93.5-18.8l2.2-0.5v124.6V382h-93.5H41.9V276.2L41.9,276.2z M130.9,319.2
			c0-0.4-1.6-1.6-3.5-2.5c-3.6-1.7-5-4.5-4.4-8.9c0.3-2,1-2.4,5.2-2.7c4.5-0.3,4.8-0.2,4.5,2c-0.2,1.3-1.3,2.8-2.6,3.3
			c-3.8,1.7-2.5,2.5,3.8,2.5c3.3,0,6-0.4,6-1c0-0.5-0.4-1-0.9-1c-1.4,0-4.1-3-4.1-4.6c0-1.8,7-2,8.8-0.2c2.8,2.8,0.2,9.1-4.5,10.9
			c-3.6,1.4-1.9,2.9,3.2,2.9h4.4v-12.5c0-7.7-0.4-12.5-1-12.5s-1,0.9-1,2c0,1.9-0.7,2-11,2s-11-0.1-11-2c0-1.1-0.4-2-1-2
			s-1,4.8-1,12.5V320h5C128.7,320,130.9,319.6,130.9,319.2L130.9,319.2z M134.4,290.7c1.3-1.3,2.6-4.2,3-6.4c1-5.6,2.9-8.1,5.2-6.7
			c3.3,2,2.8,6.1-1.1,10c-2,2-3.6,3.7-3.6,4s1.9,0.4,4.2,0.4h4.2l0.3-7c0.2-6.3,0-7.3-2.2-9.5c-5.2-5.2-11.6-1.9-13.9,7.1
			c-1.4,5.5-3.6,7.5-6,5.5c-3.1-2.6-0.9-9.5,3.8-12c3.9-2.1,3.1-3-2.2-3h-4.8l-0.3,7.5c-0.3,6.9-0.1,7.7,2.2,10
			C126.6,293.7,131.2,293.8,134.4,290.7L134.4,290.7z M134.4,266.7c1.3-1.3,2.6-4.2,3-6.4c1-5.6,2.9-8.1,5.2-6.7
			c3.3,2,2.8,6.1-1.1,10c-2,2-3.6,3.7-3.6,4s1.9,0.4,4.2,0.4h4.2l0.3-7c0.2-6.3,0-7.3-2.2-9.5c-5.2-5.2-11.6-1.9-13.9,7.1
			c-1.4,5.5-3.6,7.5-6,5.5c-3.1-2.6-0.9-9.5,3.8-12c3.9-2.1,3.1-3-2.2-3h-4.8l-0.3,7.5c-0.3,6.9-0.1,7.7,2.2,10
			C126.6,269.7,131.2,269.8,134.4,266.7L134.4,266.7z M123.5,246.3c0.7-1,6.1-3.8,12.1-6.3c6.2-2.6,11-5.2,11.1-6.1
			c0.2-1.1-3-2.9-10.8-6.3c-6.1-2.7-11.6-5.7-12.3-6.7c-2-3.1-2.7-2.1-2.7,3.6c0,3,0.4,5.5,1,5.5s1-0.6,1-1.4c0-2,1.6-2.8,4-2.1
			c1.6,0.5,2,1.5,2,5.1c0,3.9-0.3,4.6-2.6,5.4c-3.3,1.3-3.4,1.2-3.4-0.5c0-0.8-0.4-1.5-1-1.5s-1,2.8-1,6.5
			C120.9,248.3,121.4,249.1,123.5,246.3L123.5,246.3z M130.9,231.5c0-3.5,0-3.5,2.8-2.1c1.5,0.8,3.4,1.6,4.2,1.9
			c1,0.3,0.1,1.1-2.4,2.1c-2.1,0.9-4,1.6-4.2,1.6S130.9,233.4,130.9,231.5z M144.1,217.1c2.2-1.8,2.4-2.8,2.7-12.5
			c0.2-6.4,0-10.6-0.6-10.6c-0.5,0-1.2,0.9-1.5,2c-0.5,1.8-1.4,2-10.7,2s-10.2-0.2-10.7-2c-1.1-4.3-2.3-1.7-2.3,5c0,4,0.4,7,1,7
			s1-0.9,1-2c0-1.7,0.7-2,4.4-2h4.4l0.5,5.5c0.5,6.4,2.8,9.5,6.8,9.5C140.5,219,142.8,218.1,144.1,217.1L144.1,217.1z M135.5,211.4
			c-0.9-0.9-1.6-2.9-1.6-4.6c0-3,0-3,5.2-2.7c4.8,0.3,5.3,0.5,5.6,2.9C145.3,212.1,139.1,215,135.5,211.4z M230.9,352v-30h46h46v30
			v30h-46h-46V352L230.9,352z M324.9,352v-30h46.5h46.5v30v30h-46.5h-46.5V352z M419.9,352v-30h46h46v30v30h-46h-46V352z M514,257.4
			V132.8l2.2,0.5c1.2,0.3,43.3,8.7,93.5,18.8l91.2,18.2v105.9V382h-93.5H514V257.4L514,257.4z M594.2,344c0.5-1.8,1.4-2,10.7-2
			s10.2,0.2,10.7,2c1,3.9,2.3,1.9,2.3-3.5c0-3-0.5-5.5-1-5.5s-1,0.7-1,1.5c0,2.5-3.5,3.5-11.7,3.5l-7.8-0.1l10.7-4.2
			c5.9-2.3,10.7-4.6,10.8-5.2c0-0.6-4.7-2.8-10.5-4.9s-10.5-4-10.5-4.2s4.1-0.4,9.1-0.4c8.3,0,9.1,0.2,9.6,2c1.3,5.1,2.3,0.9,2.3-10
			c0-7.3-0.4-12-1-12c-0.5,0-1,0.6-1,1.4c0,2-1.6,2.8-4,2.1c-1.6-0.5-2-1.5-2-5.1c0-3.9,0.3-4.6,2.6-5.4c3.3-1.3,3.4-1.2,3.4,0.5
			c0,0.8,0.5,1.5,1,1.5c0.6,0,1-4.5,1-11.5c0-10.5-1-14.5-2.3-9.5c-0.5,1.8-1.4,2-8.8,2c-4.6,0-7.9-0.4-7.3-0.8
			c0.5-0.5,4.9-4.1,9.7-8.1s8.8-7.9,8.8-8.7c0-1.1-2.3-1.4-11-1.4c-9.9,0-11.1-0.2-12.2-2c-2-3.3-2.8-2.3-2.8,3.5
			c0,5.5,1.3,7.3,2.5,3.5c0.8-2.4,3.6-3.2,9.4-2.8l4.2,0.3l-8,6.9c-7.8,6.6-8,7-8,11.2c0,4.8,0.8,5.5,2.8,2.3
			c1.2-1.8,2.1-2,10.4-1.8c7.4,0.2,9.3,0.6,10.2,2c1.9,3-0.5,4.9-12,9.7c-6.5,2.7-11,5.2-11.2,6.1c-0.2,1.1,2.2,2.6,8.6,5.3
			c12.5,5.2,15.2,7,15.2,10.1v2.5h-11c-9.1,0-11-0.3-11-1.5c0-0.8-0.5-1.5-1-1.5c-0.6,0-1,2.6-1,5.8v5.8l7.6,2.5l7.6,2.5l-7.4,2.6
			l-7.4,2.6l-0.3,6.1C591.8,345.7,593.1,348.2,594.2,344L594.2,344z M603.5,300.9l-3.9-1.7l3.8-1.6c2.1-0.9,4-1.4,4.3-1.2
			c0.2,0.2,0.3,1.7,0.1,3.3l-0.3,2.9L603.5,300.9L603.5,300.9z M612,251.7c3.9-2.6,5.9-6,5.9-10c0-2.1,0.7-3,2.7-3.8
			c3.2-1.2,4.2-2.6,4.3-5.7c0-2.6-3.2-6.2-5.5-6.2c-2.2,0-1.8,1.8,0.5,2.5c2.7,0.9,2.5,1.9-0.6,3.4c-2.4,1.1-2.9,0.9-5.4-1.5
			c-5.7-5.5-15.8-4-20,2.9C586.6,245.3,600.5,259.5,612,251.7L612,251.7z M598,245.7c-5.4-2.8-5.4-8.7,0-10.6
			c6.1-2.1,14.7-1,10.9,1.4c-1.4,0.8-1.3,7.2,0.1,8.1C612.6,246.7,602.1,247.9,598,245.7L598,245.7z M610.3,242.6
			c-0.8-2,1.3-4.6,3.8-4.6c3,0,2.1,5.4-0.9,5.8C611.8,244,610.7,243.5,610.3,242.6z M593.9,223c0-1.9,0.7-2,9.5-2s9.7-0.2,12-2.5
			c3.3-3.3,3.5-11.9,0.4-15.9c-2-2.5-2.5-2.6-11-2.6c-9.5,0-11-0.8-11-5.9c0-2,0.5-2.1,11-2.1c10.3,0,11,0.1,11,2c0,1.1,0.5,2,1,2
			c0.6,0,1-4.8,1-12.5V171h-5c-5.9,0-6.3,1-1.5,3.3c3.6,1.7,5,4.5,4.4,8.9c-0.3,2-1,2.4-5.2,2.7c-4.5,0.3-4.8,0.2-4.5-2
			c0.2-1.3,1.3-2.8,2.6-3.3c3.8-1.7,2.5-2.5-3.8-2.5c-3.3,0-6,0.4-6,1s0.4,1,0.9,1c1.4,0,4.1,3,4.1,4.6c0,1.8-7,2-8.8,0.2
			c-2.8-2.8-0.2-9.1,4.5-10.9c3.6-1.4,1.9-2.9-3.2-2.9h-4.4v17.5c0,9.6,0.3,17.5,0.8,17.5s1.3-0.9,2-2c1.1-1.7,2.3-2,9.2-2
			c8.9,0,12,1.7,12,6.5c0,4.9-3.1,6.5-12.6,6.5c-7.8,0-8.6-0.2-9.1-2c-1.1-4.3-2.3-1.7-2.3,5c0,4,0.4,7,1,7
			C593.5,225,593.9,224.1,593.9,223L593.9,223z M230.9,289v-30h46h46v30v30h-46h-46V289z M324.9,289v-30h46.5h46.5v30v30h-46.5
			h-46.5V289z M419.9,289v-30h46h46v30v30h-46h-46V289z M230.9,226v-30h46h46v30v30h-46h-46V226z M324.9,226v-30h46.5h46.5v30v30
			h-46.5h-46.5V226z M419.9,226v-30h46h46v30v30h-46h-46V226z M230.9,163v-30h46h46v30v30h-46h-46V163z M324.9,163v-30h46.5h46.5v30
			v30h-46.5h-46.5V163z M419.9,163v-30h46h46v30v30h-46h-46V163z M230.9,100V70h140.5h140.5v30v30H371.4H230.9V100z M379.8,112.4
			c7.9-5.5,7.9-23.8,0.1-29.4c-10.9-7.8-21.8,10-14.7,24C368.5,113.7,374.7,115.9,379.8,112.4z M372.1,110.3c-0.4-1-0.7-6.8-0.7-13
			c0-9.5,0.3-11.5,1.8-13c1.7-1.7,1.9-1.7,3.2,0.2c1.7,2.3,2,22.6,0.4,25.6C375.6,112.5,373.1,112.6,372.1,110.3z"/>
		
			<path id="path2834" sodipodi:nodetypes="cccccccccsscccssccccsssccccccccssccccsssssssssssssscccccsssssssssssssscccccssssssssccsssccssssssssssssccccscccccscccssccsssssssssssssscccccssssssssssscccccsssssssssssssscccccsssccssssccsssssscccsssssscccccssssssssccssssssssssscccccssssssssssscccccsssssssssssssscccccssssssssssscccccssssssssssscccccssssssssssssccccscccccssssssssssccssccscccssssssssccssssssssssscccccscccssssssssccssssssssccssscccccssssccssccssscccscccssssssssccscccssssssssccscccssssssssccsssssssssssscccccscccccscccssssssssccsssssssssssccccccccssssssssccsssssssssscccsscccsssssscccssssssccsssssssssssssscccccscccssssssssc" class="st2" d="
			M29.9,979.8c-7.6-2.9-16-11.4-18.8-19.1l-2.2-5.8V509.5V64.1l2.2-5.8c2.9-7.7,10-15.2,18.1-18.9l6.2-2.9l331.5-0.3
			c235.5-0.2,333.4,0,337.9,0.8c3.5,0.6,8.5,2.1,11,3.4c5.7,2.9,12.5,10.1,15.4,16.4l2.2,4.7l0.3,445.9c0.3,489.1,0.8,450.7-5.7,460
			c-3.9,5.7-9.8,10.3-16.1,12.7c-4.9,1.8-13.7,1.9-340.7,1.8l-335.7-0.1L29.9,979.8L29.9,979.8z M713,978.4
			c5.6-2.6,11.4-7.6,14.6-12.6c5.8-9.1,5.4,23.8,5.4-456c0-316.5-0.3-442.2-1.1-446c-2.2-10.6-10.1-19.9-20.3-23.7l-5.7-2.1
			l-336.2,0.3L33.4,38.5l-5.2,2.7c-6.8,3.6-12,9-15.2,15.8l-2.6,5.5l-0.3,445c-0.2,394.8,0,445.5,1.3,450.2
			c2.7,9.4,11.2,18.2,20.7,21.4c5.1,1.8,17.8,1.8,340.8,1.6l335.5-0.2L713,978.4L713,978.4z M261.9,867.9c-3.7-1.5-6-3.9-6-6.3
			c0-4.2,4.5-6.1,7-3c1,1.2,1,2-0.1,4.1c-1.2,2.2-1.1,2.7,0.1,3.5c3.8,2.4,8-0.9,8-6.3c0-4.7-1.7-6.7-5.5-6.7
			c-2.5,0-3.5-0.4-3.5-1.5c0-1.2,0.9-1.5,3.7-1.2c3.3,0.3,3.8,0,4.7-2.5c1.9-5.2-2.4-11.7-5.8-8.9c-1.2,1-1.3,1.8-0.4,3.7
			c2.1,4.6-3.9,7.5-6.6,3.2c-1.7-2.8,1.2-7,5.9-8.5c7.8-2.6,15.8,2.6,14.2,9.1c-0.4,1.5-1.8,3.2-3.1,3.8l-2.4,1.1l3.2,2.1
			C284.8,859.9,273.3,872.4,261.9,867.9L261.9,867.9z M450.9,867.9c-3.7-1.5-6-3.9-6-6.3c0-4.2,4.5-6.1,7-3c1,1.2,1,2-0.1,4.1
			c-1.2,2.2-1.1,2.7,0.1,3.5c3.8,2.4,8-0.9,8-6.3c0-4.7-1.7-6.7-5.5-6.7c-2.5,0-3.5-0.4-3.5-1.5c0-1.2,0.9-1.5,3.7-1.2
			c3.3,0.3,3.8,0,4.7-2.5c1.9-5.2-2.4-11.7-5.8-8.9c-1.2,1-1.3,1.8-0.4,3.7c2.1,4.6-3.9,7.5-6.6,3.2c-1.7-2.8,1.2-7,5.9-8.5
			c7.8-2.6,15.8,2.6,14.2,9.1c-0.4,1.5-1.8,3.2-3.1,3.8l-2.4,1.1l3.2,2.1C473.8,859.9,462.3,872.4,450.9,867.9L450.9,867.9z
			 M477,867.7c-8.7-4.5-9.3-19.7-1.1-27.9c3.1-3.1,4.5-3.8,7.8-3.8c7.6,0,12.6,7.5,6.8,10.2c-3.4,1.5-5.7-0.4-5.3-4.6
			c0.2-2.5-0.1-3.1-1.7-3.1c-2.2,0-4,3.1-5.1,8.9c-0.7,3.7-0.6,3.8,1.4,2.8c8.6-4.6,18.2,5.8,12.6,13.7
			C489.1,868.5,482,870.3,477,867.7z M484.4,864.8c2.2-3.2,2-9.1-0.5-11.3c-1.9-1.7-2.1-1.7-3.8-0.1c-3.1,3.1-1.7,13.6,1.8,13.6
			C482.4,867,483.5,866,484.4,864.8z M288.9,867.1c0-0.5,0.9-1.1,2-1.4c1.4-0.4,2-1.4,2-3.1c0-2.5-0.2-2.6-6-2.6c-5.2,0-6-0.3-6-1.9
			c0-2.4,15.6-22.1,17.5-22.1c1.2,0,1.5,1.9,1.5,10.5c0,9.8,0.1,10.5,2,10.5c1.1,0,2,0.7,2,1.5s-0.9,1.5-2,1.5c-1.5,0-2,0.7-2,2.6
			c0,1.8,0.6,2.8,2,3.1c4.4,1.1,1.6,2.3-5.5,2.3C292.3,868,288.9,867.6,288.9,867.1L288.9,867.1z M292.9,851.8v-5.2l-3.9,4.5
			c-2.2,2.5-4,4.8-4,5.2s1.8,0.8,4,0.8h4L292.9,851.8L292.9,851.8L292.9,851.8z M588.6,792.9c-10.3-17.2-18.5-31.7-18.3-32.3
			s8.7-14.9,18.9-31.8l18.5-30.8l18.7,31.2c10.9,18.2,18.5,31.9,18.3,32.9c-0.5,1.9-34.3,58.7-36.2,60.7
			C607.5,823.8,603.4,817.6,588.6,792.9L588.6,792.9z M355.9,804.9c-3.7-1.5-6-3.9-6-6.3c0-4.2,4.5-6.1,7-3c1,1.2,1,2-0.1,4.1
			c-1.2,2.2-1.1,2.7,0.1,3.5c3.8,2.4,8-0.9,8-6.3c0-4.7-1.7-6.7-5.5-6.7c-2.5,0-3.5-0.4-3.5-1.5c0-1.2,0.9-1.5,3.7-1.2
			c3.3,0.3,3.8,0,4.7-2.5c1.9-5.2-2.4-11.7-5.8-8.9c-1.2,1-1.3,1.8-0.4,3.7c2.1,4.6-3.9,7.5-6.6,3.2c-1.7-2.8,1.2-7,5.9-8.5
			c7.8-2.6,15.8,2.6,14.2,9.1c-0.4,1.5-1.8,3.2-3.1,3.8l-2.4,1.1l3.2,2.1C378.8,796.9,367.3,809.4,355.9,804.9L355.9,804.9z
			 M375.9,803.6c0-0.8,3.1-4.9,7-9.2c6.9-7.7,8.8-11.6,7.6-15.4c-0.7-2.3-3.7-3.5-6.5-2.6c-2.4,0.8-2.6,2.8-0.5,4.5
			c3.2,2.7,0.6,7.8-3.4,6.5c-4.6-1.4-3.8-9.5,1.2-12.5c6.2-3.8,15.9-1.2,17.3,4.6c1,3.9-1.9,9-7.2,12.7c-8.6,6-8.5,5.7-2.2,5.7
			c5.3,0,5.8-0.2,6.4-2.5c0.6-2.5,3-3,2.8-0.6c-0.1,0.6-0.2,3.2-0.2,5.7l-0.1,4.5h-11C378.3,805,375.9,804.7,375.9,803.6
			L375.9,803.6z M450.9,741.9c-3.7-1.5-6-3.9-6-6.3c0-4.2,4.5-6.1,7-3c1,1.2,1,2-0.1,4.1c-1.2,2.2-1.1,2.7,0.1,3.5
			c3.8,2.4,8-0.9,8-6.3c0-4.7-1.7-6.7-5.5-6.7c-2.5,0-3.5-0.4-3.5-1.5c0-1.2,0.9-1.5,3.7-1.2c3.3,0.3,3.8,0,4.7-2.5
			c1.9-5.2-2.4-11.7-5.8-8.9c-1.2,1-1.3,1.8-0.4,3.7c2.1,4.6-3.9,7.5-6.6,3.2c-1.7-2.8,1.2-7,5.9-8.5c7.8-2.6,15.8,2.6,14.2,9.1
			c-0.4,1.5-1.8,3.2-3.1,3.8l-2.4,1.1l3.2,2.1C473.8,733.9,462.3,746.4,450.9,741.9L450.9,741.9z M476.9,741.7
			c-3.6-1.8-7-9.1-7-15.2c0.1-12.4,9.1-20.2,17-14.6c5.7,4.1,7.7,15.6,4.1,23.6C487.9,742.4,482.8,744.6,476.9,741.7L476.9,741.7z
			 M483.9,739.1c1.6-3.1,1.3-23.3-0.4-25.6c-1.4-1.9-1.5-1.9-3.2-0.2c-1.5,1.5-1.8,3.5-1.8,13c0,6.2,0.3,12,0.7,13
			C480.1,741.6,482.6,741.5,483.9,739.1z M287.4,679.3c-3.1-0.8-6.5-4.4-6.5-6.9c0-5.1,7.2-6.2,7.8-1.2c0.2,1.5-0.2,2.8-0.8,2.8
			c-1.4,0-1.4,2.7,0,3.5c3.5,2.1,7.9-2.6,7.9-8.4c0-6.3-7.4-10-10.1-5.1c-1.9,3.5-2.6,0.8-2.2-7.9l0.4-8.2h9.4c9,0,9.4,0.1,8.4,1.9
			c-1.8,3.3-5.3,5.1-10.2,5.1c-4.3,0-4.8,0.2-4.8,2.3s0.4,2.2,4.4,1.9c4.9-0.4,10,1.7,11.6,4.8c2.3,4.2,0.5,10.8-3.6,13.5
			C296.8,679.1,290.5,680.1,287.4,679.3L287.4,679.3z M478.9,678.5c-2.2-2.6-0.5-8.9,4.4-16.4l4.6-7.1h-6.5c-6.4,0-6.5,0-7.1,3
			c-0.3,1.7-1.2,3-2.1,3c-1.2,0-1.4-0.9-0.9-4.6c0.3-2.6,0.6-5.5,0.6-6.5c0-1.7,0.9-1.9,10.6-1.9s10.6,0.2,10.1,1.8
			c-0.3,1-1.9,5.6-3.6,10.2s-3.1,10.4-3.1,12.7C485.9,678.8,481.9,682.1,478.9,678.5L478.9,678.5z M255.9,677.6c0-0.8,3.1-4.9,7-9.2
			c6.9-7.7,8.8-11.6,7.6-15.4c-0.7-2.3-3.7-3.5-6.5-2.6c-2.4,0.8-2.6,2.8-0.5,4.5c3.2,2.7,0.6,7.8-3.4,6.5
			c-4.6-1.4-3.8-9.5,1.2-12.5c6.2-3.8,15.9-1.2,17.3,4.6c1,3.9-1.9,9-7.2,12.7c-8.6,6-8.5,5.7-2.2,5.7c5.3,0,5.8-0.2,6.4-2.5
			c0.6-2.5,3-3,2.8-0.6c-0.1,0.6-0.2,3.2-0.2,5.7l-0.1,4.5h-11C258.3,679,255.9,678.7,255.9,677.6L255.9,677.6z M444.9,677.6
			c0-0.8,3.1-4.9,7-9.2c6.9-7.7,8.8-11.6,7.6-15.4c-0.7-2.3-3.7-3.5-6.5-2.6c-2.4,0.8-2.6,2.8-0.5,4.5c3.2,2.7,0.6,7.8-3.4,6.5
			c-4.6-1.4-3.8-9.5,1.2-12.5c6.2-3.8,15.9-1.2,17.3,4.6c1,3.9-1.9,9-7.2,12.7c-8.6,6-8.5,5.7-2.2,5.7c5.3,0,5.8-0.2,6.4-2.5
			c0.6-2.5,3-3,2.8-0.6c-0.1,0.6-0.2,3.2-0.2,5.7l-0.1,4.5h-11C447.3,679,444.9,678.7,444.9,677.6L444.9,677.6z M381.9,615.9
			c-3.7-1.5-6-3.9-6-6.3c0-4.2,4.5-6.1,7-3c1,1.2,1,2-0.1,4.1c-1.2,2.2-1.1,2.7,0.1,3.5c3.8,2.4,8-0.9,8-6.3c0-4.7-1.7-6.7-5.5-6.7
			c-2.5,0-3.5-0.4-3.5-1.5c0-1.2,0.9-1.5,3.7-1.2c3.3,0.3,3.8,0,4.7-2.5c1.9-5.2-2.4-11.7-5.8-8.9c-1.2,1-1.3,1.8-0.4,3.7
			c2.1,4.6-3.9,7.5-6.6,3.2c-1.7-2.8,1.2-7,5.9-8.5c7.8-2.6,15.8,2.6,14.2,9.1c-0.4,1.5-1.8,3.2-3.1,3.8l-2.4,1.1l3.2,2.1
			C404.8,607.9,393.3,620.4,381.9,615.9L381.9,615.9z M349.9,614.6c0-0.8,3.1-4.9,7-9.2c6.9-7.7,8.8-11.6,7.6-15.4
			c-0.7-2.3-3.7-3.5-6.5-2.6c-2.4,0.8-2.6,2.8-0.5,4.5c3.2,2.7,0.6,7.8-3.4,6.5c-4.6-1.4-3.8-9.5,1.2-12.5
			c6.2-3.8,15.9-1.2,17.3,4.6c1,3.9-1.9,9-7.2,12.7c-8.6,6-8.5,5.7-2.2,5.7c5.3,0,5.8-0.2,6.4-2.5c0.6-2.5,3-3,2.8-0.6
			c-0.1,0.6-0.2,3.2-0.2,5.7l-0.1,4.5h-11C352.3,616,349.9,615.7,349.9,614.6L349.9,614.6z M444.9,614.6c0-0.8,3.1-4.9,7-9.2
			c6.9-7.7,8.8-11.6,7.6-15.4c-0.7-2.3-3.7-3.5-6.5-2.6c-2.4,0.8-2.6,2.8-0.5,4.5c3.2,2.7,0.6,7.8-3.4,6.5
			c-4.6-1.4-3.8-9.5,1.2-12.5c6.2-3.8,15.9-1.2,17.3,4.6c1,3.9-1.9,9-7.2,12.7c-8.6,6-8.5,5.7-2.2,5.7c5.3,0,5.8-0.2,6.4-2.5
			c0.6-2.5,3-3,2.8-0.6c-0.1,0.6-0.2,3.2-0.2,5.7l-0.1,4.5h-11C447.3,616,444.9,615.7,444.9,614.6L444.9,614.6z M477.9,615.1
			c0-0.5,0.9-1.1,2-1.4c1.4-0.4,2-1.4,2-3.1c0-2.5-0.2-2.6-6-2.6c-5.2,0-6-0.3-6-1.9c0-2.4,15.6-22.1,17.5-22.1
			c1.2,0,1.5,1.9,1.5,10.5c0,9.8,0.1,10.5,2,10.5c1.1,0,2,0.7,2,1.5s-0.9,1.5-2,1.5c-1.5,0-2,0.7-2,2.6c0,1.8,0.6,2.8,2,3.1
			c4.4,1.1,1.6,2.3-5.5,2.3C481.3,616,477.9,615.6,477.9,615.1L477.9,615.1z M481.9,599.8v-5.2l-3.9,4.5c-2.2,2.5-4,4.8-4,5.2
			s1.8,0.8,4,0.8h4L481.9,599.8L481.9,599.8L481.9,599.8z M284,552.1c-2.5-2.5-2.7-5.4-0.5-7.5c1.9-1.9,2-1.9,4.6-0.5
			c1.7,0.9,1.9,1.7,1.4,4.5c-0.5,2.5-0.3,3.4,0.7,3.4c3.2,0,5.8-4.5,5.8-10c0-2.7-0.1-2.8-2.8-1.8c-6.2,2.3-12.2-1.9-12.2-8.5
			c0-5.6,5.1-10.7,10.8-10.7c10,0,15.5,13.2,10.4,24.5c-2.6,5.7-5.3,7.7-11,8.3C287,554.2,285.8,553.9,284,552.1L284,552.1z
			 M294.9,536.1c2.2-4.1,0.5-13.1-2.5-13.1c-1.9,0-3.5,4-3.5,8.9C288.9,537.5,292.7,540.2,294.9,536.1z M258.9,552.1
			c0-0.5,1-1.1,2.2-1.2c2.2-0.3,2.3-0.7,2.5-12.1L264,527h-2.5c-1.6,0-2.5-0.6-2.5-1.5c0-1,1-1.5,3.3-1.5c1.8,0,4.2-0.7,5.2-1.5
			s2.3-1.5,2.7-1.5s0.8,6.2,0.8,13.8c0,14.2,0.5,16.2,4.2,16.2c1,0,1.8,0.5,1.8,1c0,0.6-3.7,1-9,1C263,553,258.9,552.6,258.9,552.1
			L258.9,552.1z M444.9,551.6c0-0.8,3.1-4.9,7-9.2c6.9-7.7,8.8-11.6,7.6-15.4c-0.7-2.3-3.7-3.5-6.5-2.6c-2.4,0.8-2.6,2.8-0.5,4.5
			c3.2,2.7,0.6,7.8-3.4,6.5c-4.6-1.4-3.8-9.5,1.2-12.5c6.2-3.8,15.9-1.2,17.3,4.6c1,3.9-1.9,9-7.2,12.7c-8.6,6-8.5,5.7-2.2,5.7
			c5.3,0,5.8-0.2,6.4-2.5c0.6-2.5,3-3,2.8-0.6c-0.1,0.6-0.2,3.2-0.2,5.7l-0.1,4.5h-11C447.3,553,444.9,552.7,444.9,551.6
			L444.9,551.6z M472.9,552.1c0-0.5,1-1.1,2.2-1.2c2.2-0.3,2.3-0.7,2.5-12.1L478,527h-2.5c-1.6,0-2.5-0.6-2.5-1.5c0-1,1-1.5,3.3-1.5
			c1.8,0,4.2-0.7,5.2-1.5s2.3-1.5,2.7-1.5s0.8,6.2,0.8,13.8c0,14.2,0.5,16.2,4.2,16.2c1,0,1.8,0.5,1.8,1c0,0.6-3.7,1-9,1
			C477,553,472.9,552.6,472.9,552.1L472.9,552.1z M288,489.7c-8.7-4.5-9.3-19.7-1.1-27.9c3.1-3.1,4.5-3.8,7.8-3.8
			c7.6,0,12.6,7.5,6.8,10.2c-3.4,1.5-5.7-0.4-5.3-4.6c0.2-2.5-0.1-3.1-1.7-3.1c-2.2,0-4,3.1-5.1,8.9c-0.7,3.7-0.6,3.8,1.4,2.8
			c8.6-4.6,18.2,5.8,12.6,13.7C300.1,490.5,293,492.3,288,489.7z M295.4,486.8c2.2-3.2,2-9.1-0.5-11.3c-1.9-1.7-2.1-1.7-3.8-0.1
			c-3.1,3.1-1.7,13.6,1.8,13.6C293.4,489,294.5,488,295.4,486.8z M475.9,490.3c-6-2.2-7.8-8.7-3.4-12.2l2.6-2l-2.1-2.7
			c-5.8-7.3,0.6-16.3,10.8-15.1c7.1,0.8,10.7,7.2,6.3,11.5c-1.7,1.7-1.7,1.9,1,4.4c4.9,4.6,3.3,12-3.2,15.4
			C485.1,491,478.9,491.4,475.9,490.3L475.9,490.3z M485.9,487c3.7-3.7,2.5-6.7-3.7-8.8c-3.8-1.3-6.3,0.4-6.3,4.1
			C475.9,488.2,482,491,485.9,487z M485.9,466.2c0-3.2-1.7-6.2-3.7-6.2c-2.2,0-5.3,2.9-5.3,5c0,3.3,6.6,6.9,8.2,4.5
			C485.6,469,485.9,467.5,485.9,466.2L485.9,466.2z M258.9,489.1c0-0.5,1-1.1,2.2-1.2c2.2-0.3,2.3-0.7,2.5-12.1L264,464h-2.5
			c-1.6,0-2.5-0.6-2.5-1.5c0-1,1-1.5,3.3-1.5c1.8,0,4.2-0.7,5.2-1.5c1.1-0.8,2.3-1.5,2.7-1.5s0.8,6.2,0.8,13.8
			c0,14.2,0.5,16.2,4.2,16.2c1,0,1.8,0.5,1.8,1c0,0.6-3.7,1-9,1C263,490,258.9,489.6,258.9,489.1z M447.9,489.1c0-0.5,1-1.1,2.2-1.2
			c2.2-0.3,2.3-0.7,2.5-12.1L453,464h-2.5c-1.6,0-2.5-0.6-2.5-1.5c0-1,1-1.5,3.3-1.5c1.8,0,4.2-0.7,5.2-1.5c1.1-0.8,2.3-1.5,2.7-1.5
			s0.8,6.2,0.8,13.8c0,14.2,0.5,16.2,4.2,16.2c1,0,1.8,0.5,1.8,1c0,0.6-3.7,1-9,1C452,490,447.9,489.6,447.9,489.1z M352.9,427.1
			c0-0.5,1-1.1,2.2-1.2c2.2-0.3,2.3-0.7,2.5-12.1L358,402h-2.5c-1.6,0-2.5-0.6-2.5-1.5c0-1,1-1.5,3.3-1.5c1.8,0,4.2-0.7,5.2-1.5
			c1.1-0.8,2.3-1.5,2.7-1.5s0.8,6.2,0.8,13.8c0,14.2,0.5,16.2,4.2,16.2c1,0,1.8,0.5,1.8,1c0,0.6-3.7,1-9,1
			C357,428,352.9,427.6,352.9,427.1z M383.9,427.1c0-0.5,0.9-1.1,2-1.4c1.4-0.4,2-1.4,2-3.1c0-2.5-0.2-2.6-6-2.6c-5.2,0-6-0.3-6-1.9
			c0-2.4,15.6-22.1,17.5-22.1c1.2,0,1.5,1.9,1.5,10.5c0,9.8,0.1,10.5,2,10.5c1.1,0,2,0.7,2,1.5s-0.9,1.5-2,1.5c-1.5,0-2,0.7-2,2.6
			c0,1.8,0.6,2.8,2,3.1c4.4,1.1,1.6,2.3-5.5,2.3C387.3,428,383.9,427.6,383.9,427.1L383.9,427.1L383.9,427.1z M387.9,411.8v-5.2
			l-3.9,4.5c-2.2,2.5-4,4.8-4,5.2c0,0.4,1.8,0.8,4,0.8h4L387.9,411.8L387.9,411.8L387.9,411.8z M447.9,364.1c0-0.5,1-1.1,2.2-1.2
			c2.2-0.3,2.3-0.7,2.5-12.1L453,339h-2.5c-1.6,0-2.5-0.6-2.5-1.5c0-1,1-1.5,3.3-1.5c1.8,0,4.2-0.7,5.2-1.5c1.1-0.8,2.3-1.5,2.7-1.5
			s0.8,6.2,0.8,13.8c0,14.2,0.5,16.2,4.2,16.2c1,0,1.8,0.5,1.8,1c0,0.6-3.7,1-9,1C452,365,447.9,364.6,447.9,364.1z M469.9,363.6
			c0-0.8,3.1-4.9,7-9.2c6.9-7.7,8.8-11.6,7.6-15.4c-0.7-2.3-3.7-3.5-6.5-2.6c-2.4,0.8-2.6,2.8-0.5,4.5c3.2,2.7,0.6,7.8-3.4,6.5
			c-4.6-1.4-3.8-9.5,1.2-12.5c6.2-3.8,15.9-1.2,17.3,4.6c1,3.9-1.9,9-7.2,12.7c-8.6,6-8.5,5.7-2.2,5.7c5.3,0,5.8-0.2,6.4-2.5
			c0.6-2.5,3-3,2.8-0.6c-0.1,0.6-0.2,3.2-0.2,5.7l-0.1,4.5h-11C472.3,365,469.9,364.7,469.9,363.6L469.9,363.6z M276.9,301.5
			c-2.2-2.6-0.5-8.9,4.4-16.4l4.6-7.1h-6.5c-6.4,0-6.5,0-7.1,3c-0.3,1.7-1.2,3-2.1,3c-1.2,0-1.4-0.9-0.9-4.6
			c0.3-2.6,0.6-5.5,0.6-6.5c0-1.7,0.9-1.9,10.6-1.9s10.6,0.2,10.1,1.8c-0.3,1-1.9,5.6-3.6,10.2s-3.1,10.4-3.1,12.7
			C283.9,301.8,279.9,305.1,276.9,301.5L276.9,301.5z M460,301.1c-2.5-2.5-2.7-5.4-0.5-7.5c1.9-1.9,2-1.9,4.6-0.5
			c1.7,0.9,1.9,1.7,1.4,4.5c-0.5,2.5-0.3,3.4,0.7,3.4c3.2,0,5.8-4.5,5.8-10c0-2.7-0.1-2.8-2.8-1.8c-6.2,2.3-12.2-1.9-12.2-8.5
			c0-5.6,5.1-10.7,10.8-10.7c10,0,15.5,13.2,10.4,24.5c-2.6,5.7-5.3,7.7-11,8.3C463,303.2,461.8,302.9,460,301.1L460,301.1
			L460,301.1z M470.9,285.1c2.2-4.1,0.5-13.1-2.5-13.1c-1.9,0-3.5,4-3.5,8.9C464.9,286.5,468.7,289.2,470.9,285.1L470.9,285.1
			L470.9,285.1z M369.4,239.3c-3.1-0.8-6.5-4.4-6.5-6.9c0-5.1,7.2-6.2,7.8-1.2c0.2,1.5-0.2,2.8-0.8,2.8c-1.4,0-1.4,2.7,0,3.5
			c3.5,2.1,7.9-2.6,7.9-8.4c0-6.3-7.4-10-10.1-5.1c-1.9,3.5-2.6,0.8-2.2-7.9l0.4-8.2h9.4c9,0,9.4,0.1,8.4,1.9
			c-1.8,3.3-5.3,5.1-10.2,5.1c-4.3,0-4.8,0.2-4.8,2.3s0.4,2.2,4.4,1.9c4.9-0.4,10,1.7,11.6,4.8c2.3,4.2,0.5,10.8-3.6,13.5
			C378.8,239.1,372.5,240.1,369.4,239.3L369.4,239.3z M462.9,175.9c-3.7-1.5-6-3.9-6-6.3c0-4.2,4.5-6.1,7-3c1,1.2,1,2-0.1,4.1
			c-1.2,2.2-1.1,2.7,0.1,3.5c3.8,2.4,8-0.9,8-6.3c0-4.7-1.7-6.7-5.5-6.7c-2.5,0-3.5-0.4-3.5-1.5c0-1.2,0.9-1.5,3.7-1.2
			c3.3,0.3,3.8,0,4.7-2.5c1.9-5.2-2.4-11.7-5.8-8.9c-1.2,1-1.3,1.8-0.4,3.7c2.1,4.6-3.9,7.5-6.6,3.2c-1.7-2.8,1.2-7,5.9-8.5
			c7.8-2.6,15.8,2.6,14.2,9.1c-0.4,1.5-1.8,3.2-3.1,3.8l-2.4,1.1l3.2,2.1C485.8,167.9,474.3,180.4,462.9,175.9L462.9,175.9z
			 M270.9,175.1c0-0.5,1-1.1,2.2-1.2c2.2-0.3,2.3-0.7,2.5-12.1L276,150h-2.5c-1.6,0-2.5-0.6-2.5-1.5c0-1,1-1.5,3.3-1.5
			c1.8,0,4.2-0.7,5.2-1.5c1.1-0.8,2.3-1.5,2.7-1.5s0.8,6.2,0.8,13.8c0,14.2,0.5,16.2,4.2,16.2c1,0,1.8,0.4,1.8,1s-3.7,1-9,1
			C275,176,270.9,175.6,270.9,175.1z"/>
		
			<path id="path2832" sodipodi:nodetypes="cccccccccsscccssccccsssccccccccssccccsssssssssssssscccccsssssscccssssssccssssssccsssssssssssssscccccsssssssssssssscccccsssssssssssssscccccscccsssssssscccccssssccssccssscccsssssssssscccsscccssssssssssscccccssssssssssscccccssssssssccsssccssssssssssscccccssssssssssscccccssssssssssscccccssssssssssscccccssssssssssssccccscccccsssccssssccsssssssssssccccccccssssssssccscccssssssssccsssssssssssssscccccsssssscccssssssccscccssssssssccscccssssssssccsscccsssccssssccscccssssssssccscccssssssssccscccsssssssscccccssssccssccssscccssssssssccsssccssssssssssssccccscccccssssssssssscccc" class="st3" d="
			M29.9,979.8c-7.6-2.9-16-11.4-18.8-19.1l-2.2-5.8V509.5V64.1l2.2-5.8c2.9-7.7,10-15.2,18.1-18.9l6.2-2.9l331.5-0.3
			c235.5-0.2,333.4,0,337.9,0.8c3.5,0.6,8.5,2.1,11,3.4c5.7,2.9,12.5,10.1,15.4,16.4l2.2,4.7l0.3,445.9c0.3,489.1,0.8,450.7-5.7,460
			c-3.9,5.7-9.8,10.3-16.1,12.7c-4.9,1.8-13.7,1.9-340.7,1.8l-335.7-0.1L29.9,979.8L29.9,979.8z M713,978.4
			c5.6-2.6,11.4-7.6,14.6-12.6c5.8-9.1,5.4,23.8,5.4-456c0-316.5-0.3-442.2-1.1-446c-2.2-10.6-10.1-19.9-20.3-23.7l-5.7-2.1
			l-336.2,0.3L33.4,38.5l-5.2,2.7c-6.8,3.6-12,9-15.2,15.8l-2.6,5.5l-0.3,445c-0.2,394.8,0,445.5,1.3,450.2
			c2.7,9.4,11.2,18.2,20.7,21.4c5.1,1.8,17.8,1.8,340.8,1.6l335.5-0.2L713,978.4L713,978.4z M355.9,867.9c-3.7-1.5-6-3.9-6-6.3
			c0-4.2,4.5-6.1,7-3c1,1.2,1,2-0.1,4.1c-1.2,2.2-1.1,2.7,0.1,3.5c3.8,2.4,8-0.9,8-6.3c0-4.7-1.7-6.7-5.5-6.7
			c-2.5,0-3.5-0.4-3.5-1.5c0-1.2,0.9-1.5,3.7-1.2c3.3,0.3,3.8,0,4.7-2.5c1.9-5.2-2.4-11.7-5.8-8.9c-1.2,1-1.3,1.8-0.4,3.7
			c2.1,4.6-3.9,7.5-6.6,3.2c-1.7-2.8,1.2-7,5.9-8.5c7.8-2.6,15.8,2.6,14.2,9.1c-0.4,1.5-1.8,3.2-3.1,3.8l-2.4,1.1l3.2,2.1
			C378.8,859.9,367.3,872.4,355.9,867.9L355.9,867.9z M382.4,868.3c-3.1-0.8-6.5-4.4-6.5-6.9c0-5.1,7.2-6.2,7.8-1.2
			c0.2,1.5-0.2,2.8-0.8,2.8c-1.4,0-1.4,2.7,0,3.5c3.5,2.1,7.9-2.6,7.9-8.4c0-6.3-7.4-10-10.1-5.1c-1.9,3.5-2.6,0.8-2.2-7.9l0.4-8.2
			h9.4c9,0,9.4,0.1,8.4,1.9c-1.8,3.3-5.3,5.1-10.2,5.1c-4.3,0-4.8,0.2-4.8,2.3s0.4,2.2,4.4,1.9c4.9-0.4,10,1.7,11.6,4.8
			c2.3,4.2,0.5,10.8-3.6,13.5C391.8,868.1,385.5,869.1,382.4,868.3L382.4,868.3z M116.1,793.2c-10.1-16.9-18.4-31-18.5-31.5
			c-0.3-1.2,36.8-62.7,37.6-62.5c0.4,0.1,9.1,14.2,19.3,31.2c13.8,23,18.4,31.4,17.7,32.5c-0.5,0.8-8.9,14.9-18.7,31.3
			c-9.8,16.4-18.1,29.7-18.4,29.7C134.7,824,126.2,810.1,116.1,793.2L116.1,793.2z M261.9,804.9c-3.7-1.5-6-3.9-6-6.3
			c0-4.2,4.5-6.1,7-3c1,1.2,1,2-0.1,4.1c-1.2,2.2-1.1,2.7,0.1,3.5c3.8,2.4,8-0.9,8-6.3c0-4.7-1.7-6.7-5.5-6.7
			c-2.5,0-3.5-0.4-3.5-1.5c0-1.2,0.9-1.5,3.7-1.2c3.3,0.3,3.8,0,4.7-2.5c1.9-5.2-2.4-11.7-5.8-8.9c-1.2,1-1.3,1.8-0.4,3.7
			c2.1,4.6-3.9,7.5-6.6,3.2c-1.7-2.8,1.2-7,5.9-8.5c7.8-2.6,15.8,2.6,14.2,9.1c-0.4,1.5-1.8,3.2-3.1,3.8l-2.4,1.1l3.2,2.1
			C284.8,796.9,273.3,809.4,261.9,804.9L261.9,804.9z M450.9,804.9c-3.7-1.5-6-3.9-6-6.3c0-4.2,4.5-6.1,7-3c1,1.2,1,2-0.1,4.1
			c-1.2,2.2-1.1,2.7,0.1,3.5c3.8,2.4,8-0.9,8-6.3c0-4.7-1.7-6.7-5.5-6.7c-2.5,0-3.5-0.4-3.5-1.5c0-1.2,0.9-1.5,3.7-1.2
			c3.3,0.3,3.8,0,4.7-2.5c1.9-5.2-2.4-11.7-5.8-8.9c-1.2,1-1.3,1.8-0.4,3.7c2.1,4.6-3.9,7.5-6.6,3.2c-1.7-2.8,1.2-7,5.9-8.5
			c7.8-2.6,15.8,2.6,14.2,9.1c-0.4,1.5-1.8,3.2-3.1,3.8l-2.4,1.1l3.2,2.1C473.8,796.9,462.3,809.4,450.9,804.9L450.9,804.9z
			 M475.9,804.9c-3.7-1.5-6-3.9-6-6.3c0-4.2,4.5-6.1,7-3c1,1.2,1,2-0.1,4.1c-1.2,2.2-1.1,2.7,0.1,3.5c3.8,2.4,8-0.9,8-6.3
			c0-4.7-1.7-6.7-5.5-6.7c-2.5,0-3.5-0.4-3.5-1.5c0-1.2,0.9-1.5,3.7-1.2c3.3,0.3,3.8,0,4.7-2.5c1.9-5.2-2.4-11.7-5.8-8.9
			c-1.2,1-1.3,1.8-0.4,3.7c2.1,4.6-3.9,7.5-6.6,3.2c-1.7-2.8,1.2-7,5.9-8.5c7.8-2.6,15.8,2.6,14.2,9.1c-0.4,1.5-1.8,3.2-3.1,3.8
			l-2.4,1.1l3.2,2.1C498.8,796.9,487.3,809.4,475.9,804.9L475.9,804.9z M283.9,804.1c0-0.5,1-1.1,2.2-1.2c2.2-0.3,2.3-0.7,2.5-12.1
			L289,779h-2.5c-1.6,0-2.5-0.6-2.5-1.5c0-1,1-1.5,3.3-1.5c1.8,0,4.2-0.7,5.2-1.5s2.3-1.5,2.7-1.5s0.8,6.2,0.8,13.8
			c0,14.2,0.5,16.2,4.2,16.2c1,0,1.8,0.5,1.8,1c0,0.6-3.7,1-9,1C288,805,283.9,804.6,283.9,804.1z M286.9,742.3
			c-6-2.2-7.8-8.7-3.4-12.2l2.6-2l-2.1-2.7c-5.8-7.3,0.6-16.3,10.8-15.1c7.1,0.8,10.7,7.2,6.3,11.5c-1.7,1.7-1.7,1.9,1,4.4
			c4.9,4.6,3.3,12-3.2,15.4C296.1,743,289.9,743.4,286.9,742.3L286.9,742.3z M296.9,739c3.7-3.7,2.5-6.7-3.7-8.8
			c-3.8-1.3-6.3,0.4-6.3,4.1C286.9,740.2,293,743,296.9,739z M296.9,718.2c0-3.2-1.7-6.2-3.7-6.2c-2.2,0-5.3,2.9-5.3,5
			c0,3.3,6.6,6.9,8.2,4.5C296.6,721,296.9,719.5,296.9,718.2L296.9,718.2L296.9,718.2z M379,741.1c-2.5-2.5-2.7-5.4-0.5-7.5
			c1.9-1.9,2-1.9,4.6-0.5c1.7,0.9,1.9,1.7,1.4,4.5c-0.5,2.5-0.3,3.4,0.7,3.4c3.2,0,5.8-4.5,5.8-10c0-2.7-0.1-2.8-2.8-1.8
			c-6.2,2.3-12.2-1.9-12.2-8.5c0-5.6,5.1-10.7,10.8-10.7c10,0,15.5,13.2,10.4,24.5c-2.6,5.7-5.3,7.7-11,8.3
			C382,743.2,380.8,742.9,379,741.1L379,741.1L379,741.1z M389.9,725.1c2.2-4.1,0.5-13.1-2.5-13.1c-1.9,0-3.5,4-3.5,8.9
			C383.9,726.5,387.7,729.2,389.9,725.1L389.9,725.1L389.9,725.1z M255.9,740.6c0-0.8,3.1-4.9,7-9.2c6.9-7.7,8.8-11.6,7.6-15.4
			c-0.7-2.3-3.7-3.5-6.5-2.6c-2.4,0.8-2.6,2.8-0.5,4.5c3.2,2.7,0.6,7.8-3.4,6.5c-4.6-1.4-3.8-9.5,1.2-12.5
			c6.2-3.8,15.9-1.2,17.3,4.6c1,3.9-1.9,9-7.2,12.7c-8.6,6-8.5,5.7-2.2,5.7c5.3,0,5.8-0.2,6.4-2.5c0.6-2.5,3-3,2.8-0.6
			c-0.1,0.6-0.2,3.2-0.2,5.7l-0.1,4.5h-11C258.3,742,255.9,741.7,255.9,740.6L255.9,740.6z M349.9,740.6c0-0.8,3.1-4.9,7-9.2
			c6.9-7.7,8.8-11.6,7.6-15.4c-0.7-2.3-3.7-3.5-6.5-2.6c-2.4,0.8-2.6,2.8-0.5,4.5c3.2,2.7,0.6,7.8-3.4,6.5
			c-4.6-1.4-3.8-9.5,1.2-12.5c6.2-3.8,15.9-1.2,17.3,4.6c1,3.9-1.9,9-7.2,12.7c-8.6,6-8.5,5.7-2.2,5.7c5.3,0,5.8-0.2,6.4-2.5
			c0.6-2.5,3-3,2.8-0.6c-0.1,0.6-0.2,3.2-0.2,5.7l-0.1,4.5h-11C352.3,742,349.9,741.7,349.9,740.6L349.9,740.6z M383,678.7
			c-8.7-4.5-9.3-19.7-1.1-27.9c3.1-3.1,4.5-3.8,7.8-3.8c7.6,0,12.6,7.5,6.8,10.2c-3.4,1.5-5.7-0.4-5.3-4.6c0.2-2.5-0.1-3.1-1.7-3.1
			c-2.2,0-4,3.1-5.1,8.9c-0.7,3.7-0.6,3.8,1.4,2.8c8.6-4.6,18.2,5.8,12.6,13.7C395.1,679.5,388,681.3,383,678.7z M390.4,675.8
			c2.2-3.2,2-9.1-0.5-11.3c-1.9-1.7-2.1-1.7-3.8-0.1c-3.1,3.1-1.7,13.6,1.8,13.6C388.4,678,389.5,677,390.4,675.8z M349.9,677.6
			c0-0.8,3.1-4.9,7-9.2c6.9-7.7,8.8-11.6,7.6-15.4c-0.7-2.3-3.7-3.5-6.5-2.6c-2.4,0.8-2.6,2.8-0.5,4.5c3.2,2.7,0.6,7.8-3.4,6.5
			c-4.6-1.4-3.8-9.5,1.2-12.5c6.2-3.8,15.9-1.2,17.3,4.6c1,3.9-1.9,9-7.2,12.7c-8.6,6-8.5,5.7-2.2,5.7c5.3,0,5.8-0.2,6.4-2.5
			c0.6-2.5,3-3,2.8-0.6c-0.1,0.6-0.2,3.2-0.2,5.7l-0.1,4.5h-11C352.3,679,349.9,678.7,349.9,677.6L349.9,677.6z M255.9,614.6
			c0-0.8,3.1-4.9,7-9.2c6.9-7.7,8.8-11.6,7.6-15.4c-0.7-2.3-3.7-3.5-6.5-2.6c-2.4,0.8-2.6,2.8-0.5,4.5c3.2,2.7,0.6,7.8-3.4,6.5
			c-4.6-1.4-3.8-9.5,1.2-12.5c6.2-3.8,15.9-1.2,17.3,4.6c1,3.9-1.9,9-7.2,12.7c-8.6,6-8.5,5.7-2.2,5.7c5.3,0,5.8-0.2,6.4-2.5
			c0.6-2.5,3-3,2.8-0.6c-0.1,0.6-0.2,3.2-0.2,5.7l-0.1,4.5h-11C258.3,616,255.9,615.7,255.9,614.6L255.9,614.6z M280.9,614.6
			c0-0.8,3.1-4.9,7-9.2c6.9-7.7,8.8-11.6,7.6-15.4c-0.7-2.3-3.7-3.5-6.5-2.6c-2.4,0.8-2.6,2.8-0.5,4.5c3.2,2.7,0.6,7.8-3.4,6.5
			c-4.6-1.4-3.8-9.5,1.2-12.5c6.2-3.8,15.9-1.2,17.3,4.6c1,3.9-1.9,9-7.2,12.7c-8.6,6-8.5,5.7-2.2,5.7c5.3,0,5.8-0.2,6.4-2.5
			c0.6-2.5,3-3,2.8-0.6c-0.1,0.6-0.2,3.2-0.2,5.7l-0.1,4.5h-11C283.3,616,280.9,615.7,280.9,614.6L280.9,614.6z M444.9,614.6
			c0-0.8,3.1-4.9,7-9.2c6.9-7.7,8.8-11.6,7.6-15.4c-0.7-2.3-3.7-3.5-6.5-2.6c-2.4,0.8-2.6,2.8-0.5,4.5c3.2,2.7,0.6,7.8-3.4,6.5
			c-4.6-1.4-3.8-9.5,1.2-12.5c6.2-3.8,15.9-1.2,17.3,4.6c1,3.9-1.9,9-7.2,12.7c-8.6,6-8.5,5.7-2.2,5.7c5.3,0,5.8-0.2,6.4-2.5
			c0.6-2.5,3-3,2.8-0.6c-0.1,0.6-0.2,3.2-0.2,5.7l-0.1,4.5h-11C447.3,616,444.9,615.7,444.9,614.6L444.9,614.6z M477.9,615.1
			c0-0.5,0.9-1.1,2-1.4c1.4-0.4,2-1.4,2-3.1c0-2.5-0.2-2.6-6-2.6c-5.2,0-6-0.3-6-1.9c0-2.4,15.6-22.1,17.5-22.1
			c1.2,0,1.5,1.9,1.5,10.5c0,9.8,0.1,10.5,2,10.5c1.1,0,2,0.7,2,1.5s-0.9,1.5-2,1.5c-1.5,0-2,0.7-2,2.6c0,1.8,0.6,2.8,2,3.1
			c4.4,1.1,1.6,2.3-5.5,2.3C481.3,616,477.9,615.6,477.9,615.1z M481.9,599.8v-5.2l-3.9,4.5c-2.2,2.5-4,4.8-4,5.2s1.8,0.8,4,0.8h4
			L481.9,599.8L481.9,599.8L481.9,599.8z M382.9,552.7c-3.6-1.8-7-9.1-7-15.2c0.1-12.4,9.1-20.2,17-14.6c5.7,4.1,7.7,15.6,4.1,23.6
			C393.9,553.4,388.8,555.6,382.9,552.7L382.9,552.7z M389.9,550.1c1.6-3.1,1.3-23.3-0.4-25.6c-1.4-1.9-1.5-1.9-3.2-0.2
			c-1.5,1.5-1.8,3.5-1.8,13c0,6.2,0.3,12,0.7,13C386.1,552.6,388.6,552.5,389.9,550.1z M349.9,551.6c0-0.8,3.1-4.9,7-9.2
			c6.9-7.7,8.8-11.6,7.6-15.4c-0.7-2.3-3.7-3.5-6.5-2.6c-2.4,0.8-2.6,2.8-0.5,4.5c3.2,2.7,0.6,7.8-3.4,6.5
			c-4.6-1.4-3.8-9.5,1.2-12.5c6.2-3.8,15.9-1.2,17.3,4.6c1,3.9-1.9,9-7.2,12.7c-8.6,6-8.5,5.7-2.2,5.7c5.3,0,5.8-0.2,6.4-2.5
			c0.6-2.5,3-3,2.8-0.6c-0.1,0.6-0.2,3.2-0.2,5.7l-0.1,4.5h-11C352.3,553,349.9,552.7,349.9,551.6L349.9,551.6z M384.9,489.5
			c-2.2-2.6-0.5-8.9,4.4-16.4l4.6-7.1h-6.5c-6.4,0-6.5,0-7.1,3c-0.3,1.7-1.2,3-2.1,3c-1.2,0-1.4-0.9-0.9-4.6
			c0.3-2.6,0.6-5.5,0.6-6.5c0-1.7,0.9-1.9,10.6-1.9s10.6,0.2,10.1,1.8c-0.3,1-1.9,5.6-3.6,10.2s-3.1,10.4-3.1,12.7
			C391.9,489.8,387.9,493.1,384.9,489.5L384.9,489.5z M352.9,489.1c0-0.5,1-1.1,2.2-1.2c2.2-0.3,2.3-0.7,2.5-12.1L358,464h-2.5
			c-1.6,0-2.5-0.6-2.5-1.5c0-1,1-1.5,3.3-1.5c1.8,0,4.2-0.7,5.2-1.5c1.1-0.8,2.3-1.5,2.7-1.5s0.8,6.2,0.8,13.8
			c0,14.2,0.5,16.2,4.2,16.2c1,0,1.8,0.5,1.8,1c0,0.6-3.7,1-9,1C357,490,352.9,489.6,352.9,489.1z M286.9,427.9
			c-3.7-1.5-6-3.9-6-6.3c0-4.2,4.5-6.1,7-3c1,1.2,1,2-0.1,4.1c-1.2,2.2-1.1,2.7,0.1,3.5c3.8,2.4,8-0.9,8-6.3c0-4.7-1.7-6.7-5.5-6.7
			c-2.5,0-3.5-0.4-3.5-1.5c0-1.2,0.9-1.5,3.7-1.2c3.3,0.3,3.8,0,4.7-2.5c1.9-5.2-2.4-11.7-5.8-8.9c-1.2,1-1.3,1.8-0.4,3.7
			c2.1,4.6-3.9,7.5-6.6,3.2c-1.7-2.8,1.2-7,5.9-8.5c7.8-2.6,15.8,2.6,14.2,9.1c-0.4,1.5-1.8,3.2-3.1,3.8l-2.4,1.1l3.2,2.1
			C309.8,419.9,298.3,432.4,286.9,427.9L286.9,427.9z M476.4,428.3c-3.1-0.8-6.5-4.4-6.5-6.9c0-5.1,7.2-6.2,7.8-1.2
			c0.2,1.5-0.2,2.8-0.8,2.8c-1.4,0-1.4,2.7,0,3.5c3.5,2.1,7.9-2.6,7.9-8.4c0-6.3-7.4-10-10.1-5.1c-1.9,3.5-2.6,0.8-2.2-7.9l0.4-8.2
			h9.4c9,0,9.4,0.1,8.4,1.9c-1.8,3.3-5.3,5.1-10.2,5.1c-4.3,0-4.8,0.2-4.8,2.3c0,2.1,0.4,2.2,4.4,1.9c4.9-0.4,10,1.7,11.6,4.8
			c2.3,4.2,0.5,10.8-3.6,13.5C485.8,428.1,479.5,429.1,476.4,428.3L476.4,428.3z M258.9,427.1c0-0.5,1-1.1,2.2-1.2
			c2.2-0.3,2.3-0.7,2.5-12.1L264,402h-2.5c-1.6,0-2.5-0.6-2.5-1.5c0-1,1-1.5,3.3-1.5c1.8,0,4.2-0.7,5.2-1.5c1.1-0.8,2.3-1.5,2.7-1.5
			s0.8,6.2,0.8,13.8c0,14.2,0.5,16.2,4.2,16.2c1,0,1.8,0.5,1.8,1c0,0.6-3.7,1-9,1C263,428,258.9,427.6,258.9,427.1z M447.9,427.1
			c0-0.5,1-1.1,2.2-1.2c2.2-0.3,2.3-0.7,2.5-12.1L453,402h-2.5c-1.6,0-2.5-0.6-2.5-1.5c0-1,1-1.5,3.3-1.5c1.8,0,4.2-0.7,5.2-1.5
			c1.1-0.8,2.3-1.5,2.7-1.5s0.8,6.2,0.8,13.8c0,14.2,0.5,16.2,4.2,16.2c1,0,1.8,0.5,1.8,1c0,0.6-3.7,1-9,1
			C452,428,447.9,427.6,447.9,427.1z M353.2,399.4c0.3-0.3,1.2-0.4,1.9-0.1c0.8,0.3,0.6,0.6-0.6,0.6
			C353.5,400,352.9,399.7,353.2,399.4L353.2,399.4L353.2,399.4z M287.9,364.7c-3.6-1.8-7-9.1-7-15.2c0.1-12.4,9.1-20.2,17-14.6
			c5.7,4.1,7.7,15.6,4.1,23.6C298.9,365.4,293.8,367.6,287.9,364.7L287.9,364.7z M294.9,362.1c1.6-3.1,1.3-23.3-0.4-25.6
			c-1.4-1.9-1.5-1.9-3.2-0.2c-1.5,1.5-1.8,3.5-1.8,13c0,6.2,0.3,12,0.7,13C291.1,364.6,293.6,364.5,294.9,362.1z M258.9,364.1
			c0-0.5,1-1.1,2.2-1.2c2.2-0.3,2.3-0.7,2.5-12.1L264,339h-2.5c-1.6,0-2.5-0.6-2.5-1.5c0-1,1-1.5,3.3-1.5c1.8,0,4.2-0.7,5.2-1.5
			c1.1-0.8,2.3-1.5,2.7-1.5s0.8,6.2,0.8,13.8c0,14.2,0.5,16.2,4.2,16.2c1,0,1.8,0.5,1.8,1c0,0.6-3.7,1-9,1
			C263,365,258.9,364.6,258.9,364.1z M352.9,364.1c0-0.5,1-1.1,2.2-1.2c2.2-0.3,2.3-0.7,2.5-12.1L358,339h-2.5
			c-1.6,0-2.5-0.6-2.5-1.5c0-1,1-1.5,3.3-1.5c1.8,0,4.2-0.7,5.2-1.5c1.1-0.8,2.3-1.5,2.7-1.5s0.8,6.2,0.8,13.8
			c0,14.2,0.5,16.2,4.2,16.2c1,0,1.8,0.5,1.8,1c0,0.6-3.7,1-9,1C357,365,352.9,364.6,352.9,364.1z M378.9,364.1c0-0.5,1-1.1,2.2-1.2
			c2.2-0.3,2.3-0.7,2.5-12.1L384,339h-2.5c-1.6,0-2.5-0.6-2.5-1.5c0-1,1-1.5,3.3-1.5c1.8,0,4.2-0.7,5.2-1.5c1.1-0.8,2.3-1.5,2.7-1.5
			s0.8,6.2,0.8,13.8c0,14.2,0.5,16.2,4.2,16.2c1,0,1.8,0.5,1.8,1c0,0.6-3.7,1-9,1C383,365,378.9,364.6,378.9,364.1z M368.9,302.3
			c-6-2.2-7.8-8.7-3.4-12.2l2.6-2l-2.1-2.7c-5.8-7.3,0.6-16.3,10.8-15.1c7.1,0.8,10.7,7.2,6.3,11.5c-1.7,1.7-1.7,1.9,1,4.4
			c4.9,4.6,3.3,12-3.2,15.4C378.1,303,371.9,303.4,368.9,302.3L368.9,302.3z M378.9,299c3.7-3.7,2.5-6.7-3.7-8.8
			c-3.8-1.3-6.3,0.4-6.3,4.1C368.9,300.2,375,303,378.9,299z M378.9,278.2c0-3.2-1.7-6.2-3.7-6.2c-2.2,0-5.3,2.9-5.3,5
			c0,3.3,6.6,6.9,8.2,4.5C378.6,281,378.9,279.5,378.9,278.2L378.9,278.2z M464,238.7c-8.7-4.5-9.3-19.7-1.1-27.9
			c3.1-3.1,4.5-3.8,7.8-3.8c7.6,0,12.6,7.5,6.8,10.2c-3.4,1.5-5.7-0.4-5.3-4.6c0.2-2.5-0.1-3.1-1.7-3.1c-2.2,0-4,3.1-5.1,8.9
			c-0.7,3.7-0.6,3.8,1.4,2.8c8.6-4.6,18.2,5.8,12.6,13.7C476.1,239.5,469,241.3,464,238.7L464,238.7z M471.4,235.8
			c2.2-3.2,2-9.1-0.5-11.3c-1.9-1.7-2.1-1.7-3.8-0.1c-3.1,3.1-1.7,13.6,1.8,13.6C469.4,238,470.5,237,471.4,235.8L471.4,235.8z
			 M275.9,238.1c0-0.5,0.9-1.1,2-1.4c1.4-0.4,2-1.4,2-3.1c0-2.5-0.2-2.6-6-2.6c-5.2,0-6-0.3-6-1.9c0-2.4,15.6-22.1,17.5-22.1
			c1.2,0,1.5,1.9,1.5,10.5c0,9.8,0.1,10.5,2,10.5c1.1,0,2,0.7,2,1.5s-0.9,1.5-2,1.5c-1.5,0-2,0.7-2,2.6c0,1.8,0.6,2.8,2,3.1
			c4.4,1.1,1.6,2.3-5.5,2.3C279.3,239,275.9,238.6,275.9,238.1L275.9,238.1z M279.9,222.8v-5.2l-3.9,4.5c-2.2,2.5-4,4.8-4,5.2
			s1.8,0.8,4,0.8h4L279.9,222.8L279.9,222.8L279.9,222.8z M362.9,174.6c0-0.8,3.1-4.9,7-9.2c6.9-7.7,8.8-11.6,7.6-15.4
			c-0.7-2.3-3.7-3.5-6.5-2.6c-2.4,0.8-2.6,2.8-0.5,4.5c3.2,2.7,0.6,7.8-3.4,6.5c-1.1-0.4-2.3-1.7-2.7-3.1
			c-2.2-8.7,8.8-14.7,17.3-9.5c6.4,3.9,5,11.5-3.3,17.3c-8.6,6-8.5,5.7-2.2,5.7c5.3,0,5.8-0.2,6.4-2.5c0.6-2.5,3-3,2.8-0.6
			c-0.1,0.6-0.2,3.2-0.2,5.7l-0.1,4.5h-11C365.3,176,362.9,175.7,362.9,174.6L362.9,174.6z"/>
	</g>
</g>
</svg>
